<svg xmlns="http://www.w3.org/2000/svg" xmlns:xlink="http://www.w3.org/1999/xlink" zoomAndPan="magnify" preserveAspectRatio="xMidYMid meet" version="1.0" viewBox="0.54 9.24 140.81 18.59"><defs><g/><clipPath id="35d6fad705"><path d="M 1 0.183594 L 14 0.183594 L 14 13 L 1 13 Z M 1 0.183594 " clip-rule="nonzero"/></clipPath><clipPath id="16a654227a"><path d="M 14 0.183594 L 17 0.183594 L 17 13 L 14 13 Z M 14 0.183594 " clip-rule="nonzero"/></clipPath><clipPath id="f6eeee452f"><rect x="0" width="65" y="0" height="17"/></clipPath><clipPath id="19f80870d4"><path d="M 0.789062 8 L 74 8 L 74 30 L 0.789062 30 Z M 0.789062 8 " clip-rule="nonzero"/></clipPath><clipPath id="db9f46c6be"><path d="M 0.789062 1 L 20 1 L 20 16 L 0.789062 16 Z M 0.789062 1 " clip-rule="nonzero"/></clipPath><clipPath id="4512b07602"><path d="M 63 6 L 73.738281 6 L 73.738281 20 L 63 20 Z M 63 6 " clip-rule="nonzero"/></clipPath><clipPath id="67cb3e080c"><rect x="0" width="74" y="0" height="22"/></clipPath><clipPath id="fc5112f354"><path d="M 1 0.183594 L 14 0.183594 L 14 13 L 1 13 Z M 1 0.183594 " clip-rule="nonzero"/></clipPath><clipPath id="32bb48e67f"><path d="M 14 0.183594 L 17 0.183594 L 17 13 L 14 13 Z M 14 0.183594 " clip-rule="nonzero"/></clipPath><clipPath id="698d0a1a16"><rect x="0" width="65" y="0" height="17"/></clipPath></defs><g transform="matrix(1, 0, 0, 1, 77, 10)"><g clip-path="url(#f6eeee452f)"><g clip-path="url(#35d6fad705)"><g fill="#0067ff" fill-opacity="1"><g transform="translate(1.082116, 12.926222)"><g><path d="M 12.203125 0 L 9.875 0 L 8.90625 -2.328125 L 3.359375 -2.328125 L 2.40625 0 L 0.078125 0 L 5.09375 -12.0625 L 7.1875 -12.0625 Z M 6.0625 -8.921875 L 4.125 -4.171875 L 8.15625 -4.171875 L 6.203125 -8.921875 L 6.15625 -9.21875 L 6.125 -9.21875 Z M 6.0625 -8.921875 "/></g></g></g></g><g clip-path="url(#16a654227a)"><g fill="#0067ff" fill-opacity="1"><g transform="translate(13.369798, 12.926222)"><g><path d="M 3.40625 0 L 1.25 0 L 1.25 -12.484375 L 3.40625 -12.484375 Z M 3.40625 0 "/></g></g></g></g><g fill="#0067ff" fill-opacity="1"><g transform="translate(18.020869, 12.926222)"><g><path d="M 4.890625 0.28125 C 4.285156 0.28125 3.71875 0.15625 3.1875 -0.09375 C 2.664062 -0.34375 2.210938 -0.6875 1.828125 -1.125 C 1.441406 -1.570312 1.140625 -2.085938 0.921875 -2.671875 C 0.710938 -3.253906 0.609375 -3.878906 0.609375 -4.546875 C 0.609375 -5.210938 0.710938 -5.835938 0.921875 -6.421875 C 1.140625 -7.003906 1.441406 -7.515625 1.828125 -7.953125 C 2.222656 -8.398438 2.679688 -8.75 3.203125 -9 C 3.722656 -9.25 4.285156 -9.375 4.890625 -9.375 C 5.628906 -9.375 6.285156 -9.210938 6.859375 -8.890625 C 7.441406 -8.578125 7.878906 -8.132812 8.171875 -7.5625 L 8.171875 -9.109375 L 10.21875 -9.109375 L 10.21875 0 L 8.171875 0 L 8.171875 -1.53125 C 7.878906 -0.96875 7.441406 -0.523438 6.859375 -0.203125 C 6.285156 0.117188 5.628906 0.28125 4.890625 0.28125 Z M 5.40625 -1.703125 C 5.78125 -1.703125 6.128906 -1.773438 6.453125 -1.921875 C 6.773438 -2.066406 7.054688 -2.269531 7.296875 -2.53125 C 7.546875 -2.789062 7.738281 -3.09375 7.875 -3.4375 C 8.019531 -3.78125 8.09375 -4.148438 8.09375 -4.546875 C 8.09375 -4.941406 8.019531 -5.3125 7.875 -5.65625 C 7.738281 -6.007812 7.546875 -6.316406 7.296875 -6.578125 C 7.054688 -6.835938 6.773438 -7.035156 6.453125 -7.171875 C 6.128906 -7.316406 5.78125 -7.390625 5.40625 -7.390625 C 4.914062 -7.390625 4.46875 -7.269531 4.0625 -7.03125 C 3.664062 -6.800781 3.34375 -6.472656 3.09375 -6.046875 C 2.851562 -5.617188 2.734375 -5.117188 2.734375 -4.546875 C 2.734375 -3.960938 2.851562 -3.457031 3.09375 -3.03125 C 3.34375 -2.601562 3.671875 -2.273438 4.078125 -2.046875 C 4.484375 -1.816406 4.925781 -1.703125 5.40625 -1.703125 Z M 5.40625 -1.703125 "/></g></g></g><g fill="#0067ff" fill-opacity="1"><g transform="translate(29.493506, 12.926222)"><g><path d="M 3.40625 0 L 1.25 0 L 1.25 -9.109375 L 3.3125 -9.109375 L 3.3125 -7.453125 C 3.519531 -7.960938 3.832031 -8.363281 4.25 -8.65625 C 4.664062 -8.957031 5.164062 -9.109375 5.75 -9.109375 L 6.734375 -9.109375 L 6.734375 -7.265625 L 5.875 -7.265625 C 5.382812 -7.265625 4.953125 -7.144531 4.578125 -6.90625 C 4.203125 -6.675781 3.910156 -6.332031 3.703125 -5.875 C 3.503906 -5.425781 3.40625 -4.878906 3.40625 -4.234375 Z M 3.40625 0 "/></g></g></g><g fill="#0067ff" fill-opacity="1"><g transform="translate(36.501118, 12.926222)"><g><path d="M 12.421875 -9.375 C 13.566406 -9.375 14.421875 -8.984375 14.984375 -8.203125 C 15.554688 -7.429688 15.84375 -6.332031 15.84375 -4.90625 L 15.84375 0 L 13.71875 0 L 13.71875 -4.859375 C 13.71875 -5.753906 13.546875 -6.398438 13.203125 -6.796875 C 12.859375 -7.203125 12.390625 -7.40625 11.796875 -7.40625 C 11.421875 -7.40625 11.0625 -7.289062 10.71875 -7.0625 C 10.382812 -6.832031 10.113281 -6.507812 9.90625 -6.09375 C 9.707031 -5.675781 9.609375 -5.195312 9.609375 -4.65625 L 9.609375 0 L 7.484375 0 L 7.484375 -4.859375 C 7.484375 -5.753906 7.3125 -6.398438 6.96875 -6.796875 C 6.625 -7.203125 6.160156 -7.40625 5.578125 -7.40625 C 5.191406 -7.40625 4.832031 -7.289062 4.5 -7.0625 C 4.164062 -6.832031 3.894531 -6.507812 3.6875 -6.09375 C 3.476562 -5.675781 3.375 -5.195312 3.375 -4.65625 L 3.375 0 L 1.25 0 L 1.25 -9.109375 L 3.265625 -9.109375 L 3.28125 -7.6875 C 3.445312 -8.007812 3.671875 -8.296875 3.953125 -8.546875 C 4.234375 -8.804688 4.5625 -9.007812 4.9375 -9.15625 C 5.320312 -9.300781 5.738281 -9.375 6.1875 -9.375 C 6.945312 -9.375 7.578125 -9.195312 8.078125 -8.84375 C 8.585938 -8.5 8.972656 -7.992188 9.234375 -7.328125 C 9.617188 -8.023438 10.082031 -8.539062 10.625 -8.875 C 11.164062 -9.207031 11.765625 -9.375 12.421875 -9.375 Z M 12.421875 -9.375 "/></g></g></g><g fill="#0067ff" fill-opacity="1"><g transform="translate(53.528456, 12.926222)"><g><path d="M 9.921875 -4.71875 C 9.921875 -4.601562 9.914062 -4.492188 9.90625 -4.390625 C 9.90625 -4.296875 9.894531 -4.160156 9.875 -3.984375 L 2.765625 -3.984375 C 2.835938 -3.484375 2.992188 -3.0625 3.234375 -2.71875 C 3.472656 -2.375 3.769531 -2.109375 4.125 -1.921875 C 4.476562 -1.734375 4.863281 -1.640625 5.28125 -1.640625 C 5.832031 -1.640625 6.273438 -1.742188 6.609375 -1.953125 C 6.941406 -2.171875 7.1875 -2.472656 7.34375 -2.859375 L 9.6875 -2.859375 C 9.570312 -2.453125 9.382812 -2.054688 9.125 -1.671875 C 8.875 -1.296875 8.5625 -0.960938 8.1875 -0.671875 C 7.8125 -0.378906 7.382812 -0.148438 6.90625 0.015625 C 6.425781 0.191406 5.898438 0.28125 5.328125 0.28125 C 4.648438 0.28125 4.019531 0.15625 3.4375 -0.09375 C 2.863281 -0.351562 2.363281 -0.703125 1.9375 -1.140625 C 1.519531 -1.585938 1.191406 -2.101562 0.953125 -2.6875 C 0.722656 -3.269531 0.609375 -3.890625 0.609375 -4.546875 C 0.609375 -5.210938 0.722656 -5.835938 0.953125 -6.421875 C 1.191406 -7.003906 1.519531 -7.515625 1.9375 -7.953125 C 2.363281 -8.398438 2.863281 -8.75 3.4375 -9 C 4.019531 -9.25 4.648438 -9.375 5.328125 -9.375 C 6.015625 -9.375 6.640625 -9.25 7.203125 -9 C 7.765625 -8.757812 8.25 -8.421875 8.65625 -7.984375 C 9.0625 -7.546875 9.375 -7.046875 9.59375 -6.484375 C 9.8125 -5.929688 9.921875 -5.34375 9.921875 -4.71875 Z M 2.859375 -5.640625 L 7.734375 -5.640625 C 7.703125 -5.984375 7.570312 -6.296875 7.34375 -6.578125 C 7.125 -6.859375 6.835938 -7.082031 6.484375 -7.25 C 6.128906 -7.425781 5.742188 -7.515625 5.328125 -7.515625 C 4.960938 -7.515625 4.613281 -7.445312 4.28125 -7.3125 C 3.957031 -7.175781 3.664062 -6.96875 3.40625 -6.6875 C 3.15625 -6.414062 2.972656 -6.066406 2.859375 -5.640625 Z M 2.859375 -5.640625 "/></g></g></g></g></g><g clip-path="url(#19f80870d4)"><g transform="matrix(1, 0, 0, 1, 0, 8)"><g clip-path="url(#67cb3e080c)"><g clip-path="url(#db9f46c6be)"><g fill="#fafcfd" fill-opacity="1"><g transform="translate(0.789474, 15.516633)"><g><path d="M 11.515625 0 L 9.3125 -7.6875 L 7.125 0 L 3.65625 0 L -0.25 -13.703125 L 3.21875 -13.703125 L 5.5625 -4.296875 L 5.640625 -4.296875 L 8.140625 -13.703125 L 10.5 -13.703125 L 12.984375 -4.296875 L 13.078125 -4.296875 L 15.40625 -13.703125 L 18.875 -13.703125 L 14.96875 0 Z M 11.515625 0 "/></g></g></g></g><g fill="#fafcfd" fill-opacity="1"><g transform="translate(18.284245, 15.516633)"><g><path d="M 1.578125 -1.046875 C 0.773438 -1.921875 0.375 -2.988281 0.375 -4.25 C 0.375 -5.507812 0.773438 -6.578125 1.578125 -7.453125 C 2.378906 -8.328125 3.394531 -8.765625 4.625 -8.765625 C 5.75 -8.765625 6.675781 -8.410156 7.40625 -7.703125 L 7.40625 -8.515625 L 10.34375 -8.515625 L 10.34375 0 L 7.4375 0 L 7.4375 -0.96875 L 7.40625 -0.96875 C 6.675781 -0.15625 5.75 0.25 4.625 0.25 C 3.394531 0.25 2.378906 -0.179688 1.578125 -1.046875 Z M 4.078125 -5.6875 C 3.691406 -5.3125 3.5 -4.832031 3.5 -4.25 C 3.5 -3.664062 3.679688 -3.1875 4.046875 -2.8125 C 4.410156 -2.445312 4.894531 -2.265625 5.5 -2.265625 C 6.070312 -2.265625 6.539062 -2.453125 6.90625 -2.828125 C 7.28125 -3.203125 7.46875 -3.675781 7.46875 -4.25 C 7.46875 -4.832031 7.273438 -5.3125 6.890625 -5.6875 C 6.515625 -6.070312 6.050781 -6.265625 5.5 -6.265625 C 4.9375 -6.265625 4.460938 -6.070312 4.078125 -5.6875 Z M 4.078125 -5.6875 "/></g></g></g><g fill="#fafcfd" fill-opacity="1"><g transform="translate(29.631781, 15.516633)"><g><path d="M 10.734375 -8.515625 L 6.671875 -4.453125 L 11.125 0 L 7.34375 0 L 3.9375 -3.40625 L 3.9375 0 L 1 0 L 1 -14.28125 L 3.9375 -14.28125 L 3.9375 -5.546875 L 6.90625 -8.515625 Z M 10.734375 -8.515625 "/></g></g></g><g fill="#fafcfd" fill-opacity="1"><g transform="translate(39.949216, 15.516633)"><g><path d="M 9.609375 -3.859375 L 3.4375 -3.859375 C 3.4375 -3.253906 3.628906 -2.804688 4.015625 -2.515625 C 4.398438 -2.234375 4.820312 -2.09375 5.28125 -2.09375 C 5.757812 -2.09375 6.132812 -2.15625 6.40625 -2.28125 C 6.6875 -2.40625 7.003906 -2.660156 7.359375 -3.046875 L 9.484375 -1.96875 C 8.597656 -0.488281 7.125 0.25 5.0625 0.25 C 3.78125 0.25 2.675781 -0.1875 1.75 -1.0625 C 0.832031 -1.945312 0.375 -3.007812 0.375 -4.25 C 0.375 -5.488281 0.832031 -6.550781 1.75 -7.4375 C 2.675781 -8.320312 3.78125 -8.765625 5.0625 -8.765625 C 6.414062 -8.765625 7.515625 -8.375 8.359375 -7.59375 C 9.210938 -6.8125 9.640625 -5.695312 9.640625 -4.25 C 9.640625 -4.050781 9.628906 -3.921875 9.609375 -3.859375 Z M 3.515625 -5.484375 L 6.765625 -5.484375 C 6.691406 -5.921875 6.515625 -6.257812 6.234375 -6.5 C 5.953125 -6.738281 5.59375 -6.859375 5.15625 -6.859375 C 4.664062 -6.859375 4.273438 -6.726562 3.984375 -6.46875 C 3.691406 -6.21875 3.535156 -5.890625 3.515625 -5.484375 Z M 3.515625 -5.484375 "/></g></g></g><g fill="#fafcfd" fill-opacity="1"><g transform="translate(49.967609, 15.516633)"><g><path d="M 11.53125 -13.703125 L 11.53125 -4.859375 C 11.53125 -3.179688 11.070312 -1.910156 10.15625 -1.046875 C 9.25 -0.179688 7.921875 0.25 6.171875 0.25 C 4.421875 0.25 3.09375 -0.179688 2.1875 -1.046875 C 1.28125 -1.910156 0.828125 -3.179688 0.828125 -4.859375 L 0.828125 -13.703125 L 3.953125 -13.703125 L 3.953125 -5.78125 C 3.953125 -4.675781 4.125 -3.90625 4.46875 -3.46875 C 4.820312 -3.039062 5.390625 -2.828125 6.171875 -2.828125 C 6.960938 -2.828125 7.53125 -3.039062 7.875 -3.46875 C 8.226562 -3.90625 8.40625 -4.675781 8.40625 -5.78125 L 8.40625 -13.703125 Z M 11.53125 -13.703125 "/></g></g></g><g clip-path="url(#4512b07602)"><g fill="#fafcfd" fill-opacity="1"><g transform="translate(62.328614, 15.516633)"><g><path d="M 9.765625 -7.453125 C 10.566406 -6.585938 10.96875 -5.523438 10.96875 -4.265625 C 10.96875 -3.003906 10.566406 -1.9375 9.765625 -1.0625 C 8.972656 -0.1875 7.960938 0.25 6.734375 0.25 C 5.597656 0.25 4.664062 -0.101562 3.9375 -0.8125 L 3.9375 4.3125 L 1 4.3125 L 1 -8.515625 L 3.90625 -8.515625 L 3.90625 -7.5625 L 3.9375 -7.5625 C 4.664062 -8.363281 5.597656 -8.765625 6.734375 -8.765625 C 7.960938 -8.765625 8.972656 -8.328125 9.765625 -7.453125 Z M 7.265625 -2.828125 C 7.648438 -3.203125 7.84375 -3.679688 7.84375 -4.265625 C 7.84375 -4.859375 7.660156 -5.335938 7.296875 -5.703125 C 6.929688 -6.078125 6.445312 -6.265625 5.84375 -6.265625 C 5.269531 -6.265625 4.796875 -6.070312 4.421875 -5.6875 C 4.054688 -5.3125 3.875 -4.835938 3.875 -4.265625 C 3.875 -3.679688 4.0625 -3.203125 4.4375 -2.828125 C 4.820312 -2.453125 5.289062 -2.265625 5.84375 -2.265625 C 6.40625 -2.265625 6.878906 -2.453125 7.265625 -2.828125 Z M 7.265625 -2.828125 "/></g></g></g></g></g></g></g><g transform="matrix(1, 0, 0, 1, 78, 10)"><g clip-path="url(#698d0a1a16)"><g clip-path="url(#fc5112f354)"><g fill="#0067ff" fill-opacity="1"><g transform="translate(0.983467, 12.926222)"><g><path d="M 12.203125 0 L 9.875 0 L 8.90625 -2.328125 L 3.359375 -2.328125 L 2.40625 0 L 0.078125 0 L 5.09375 -12.0625 L 7.1875 -12.0625 Z M 6.0625 -8.921875 L 4.125 -4.171875 L 8.15625 -4.171875 L 6.203125 -8.921875 L 6.15625 -9.21875 L 6.125 -9.21875 Z M 6.0625 -8.921875 "/></g></g></g></g><g clip-path="url(#32bb48e67f)"><g fill="#0067ff" fill-opacity="1"><g transform="translate(13.271149, 12.926222)"><g><path d="M 3.40625 0 L 1.25 0 L 1.25 -12.484375 L 3.40625 -12.484375 Z M 3.40625 0 "/></g></g></g></g><g fill="#0067ff" fill-opacity="1"><g transform="translate(17.92222, 12.926222)"><g><path d="M 4.890625 0.28125 C 4.285156 0.28125 3.71875 0.15625 3.1875 -0.09375 C 2.664062 -0.34375 2.210938 -0.6875 1.828125 -1.125 C 1.441406 -1.570312 1.140625 -2.085938 0.921875 -2.671875 C 0.710938 -3.253906 0.609375 -3.878906 0.609375 -4.546875 C 0.609375 -5.210938 0.710938 -5.835938 0.921875 -6.421875 C 1.140625 -7.003906 1.441406 -7.515625 1.828125 -7.953125 C 2.222656 -8.398438 2.679688 -8.75 3.203125 -9 C 3.722656 -9.25 4.285156 -9.375 4.890625 -9.375 C 5.628906 -9.375 6.285156 -9.210938 6.859375 -8.890625 C 7.441406 -8.578125 7.878906 -8.132812 8.171875 -7.5625 L 8.171875 -9.109375 L 10.21875 -9.109375 L 10.21875 0 L 8.171875 0 L 8.171875 -1.53125 C 7.878906 -0.96875 7.441406 -0.523438 6.859375 -0.203125 C 6.285156 0.117188 5.628906 0.28125 4.890625 0.28125 Z M 5.40625 -1.703125 C 5.78125 -1.703125 6.128906 -1.773438 6.453125 -1.921875 C 6.773438 -2.066406 7.054688 -2.269531 7.296875 -2.53125 C 7.546875 -2.789062 7.738281 -3.09375 7.875 -3.4375 C 8.019531 -3.78125 8.09375 -4.148438 8.09375 -4.546875 C 8.09375 -4.941406 8.019531 -5.3125 7.875 -5.65625 C 7.738281 -6.007812 7.546875 -6.316406 7.296875 -6.578125 C 7.054688 -6.835938 6.773438 -7.035156 6.453125 -7.171875 C 6.128906 -7.316406 5.78125 -7.390625 5.40625 -7.390625 C 4.914062 -7.390625 4.46875 -7.269531 4.0625 -7.03125 C 3.664062 -6.800781 3.34375 -6.472656 3.09375 -6.046875 C 2.851562 -5.617188 2.734375 -5.117188 2.734375 -4.546875 C 2.734375 -3.960938 2.851562 -3.457031 3.09375 -3.03125 C 3.34375 -2.601562 3.671875 -2.273438 4.078125 -2.046875 C 4.484375 -1.816406 4.925781 -1.703125 5.40625 -1.703125 Z M 5.40625 -1.703125 "/></g></g></g><g fill="#0067ff" fill-opacity="1"><g transform="translate(29.394857, 12.926222)"><g><path d="M 3.40625 0 L 1.25 0 L 1.25 -9.109375 L 3.3125 -9.109375 L 3.3125 -7.453125 C 3.519531 -7.960938 3.832031 -8.363281 4.25 -8.65625 C 4.664062 -8.957031 5.164062 -9.109375 5.75 -9.109375 L 6.734375 -9.109375 L 6.734375 -7.265625 L 5.875 -7.265625 C 5.382812 -7.265625 4.953125 -7.144531 4.578125 -6.90625 C 4.203125 -6.675781 3.910156 -6.332031 3.703125 -5.875 C 3.503906 -5.425781 3.40625 -4.878906 3.40625 -4.234375 Z M 3.40625 0 "/></g></g></g><g fill="#0067ff" fill-opacity="1"><g transform="translate(36.402469, 12.926222)"><g><path d="M 12.421875 -9.375 C 13.566406 -9.375 14.421875 -8.984375 14.984375 -8.203125 C 15.554688 -7.429688 15.84375 -6.332031 15.84375 -4.90625 L 15.84375 0 L 13.71875 0 L 13.71875 -4.859375 C 13.71875 -5.753906 13.546875 -6.398438 13.203125 -6.796875 C 12.859375 -7.203125 12.390625 -7.40625 11.796875 -7.40625 C 11.421875 -7.40625 11.0625 -7.289062 10.71875 -7.0625 C 10.382812 -6.832031 10.113281 -6.507812 9.90625 -6.09375 C 9.707031 -5.675781 9.609375 -5.195312 9.609375 -4.65625 L 9.609375 0 L 7.484375 0 L 7.484375 -4.859375 C 7.484375 -5.753906 7.3125 -6.398438 6.96875 -6.796875 C 6.625 -7.203125 6.160156 -7.40625 5.578125 -7.40625 C 5.191406 -7.40625 4.832031 -7.289062 4.5 -7.0625 C 4.164062 -6.832031 3.894531 -6.507812 3.6875 -6.09375 C 3.476562 -5.675781 3.375 -5.195312 3.375 -4.65625 L 3.375 0 L 1.25 0 L 1.25 -9.109375 L 3.265625 -9.109375 L 3.28125 -7.6875 C 3.445312 -8.007812 3.671875 -8.296875 3.953125 -8.546875 C 4.234375 -8.804688 4.5625 -9.007812 4.9375 -9.15625 C 5.320312 -9.300781 5.738281 -9.375 6.1875 -9.375 C 6.945312 -9.375 7.578125 -9.195312 8.078125 -8.84375 C 8.585938 -8.5 8.972656 -7.992188 9.234375 -7.328125 C 9.617188 -8.023438 10.082031 -8.539062 10.625 -8.875 C 11.164062 -9.207031 11.765625 -9.375 12.421875 -9.375 Z M 12.421875 -9.375 "/></g></g></g><g fill="#0067ff" fill-opacity="1"><g transform="translate(53.429808, 12.926222)"><g><path d="M 9.921875 -4.71875 C 9.921875 -4.601562 9.914062 -4.492188 9.90625 -4.390625 C 9.90625 -4.296875 9.894531 -4.160156 9.875 -3.984375 L 2.765625 -3.984375 C 2.835938 -3.484375 2.992188 -3.0625 3.234375 -2.71875 C 3.472656 -2.375 3.769531 -2.109375 4.125 -1.921875 C 4.476562 -1.734375 4.863281 -1.640625 5.28125 -1.640625 C 5.832031 -1.640625 6.273438 -1.742188 6.609375 -1.953125 C 6.941406 -2.171875 7.1875 -2.472656 7.34375 -2.859375 L 9.6875 -2.859375 C 9.570312 -2.453125 9.382812 -2.054688 9.125 -1.671875 C 8.875 -1.296875 8.5625 -0.960938 8.1875 -0.671875 C 7.8125 -0.378906 7.382812 -0.148438 6.90625 0.015625 C 6.425781 0.191406 5.898438 0.28125 5.328125 0.28125 C 4.648438 0.28125 4.019531 0.15625 3.4375 -0.09375 C 2.863281 -0.351562 2.363281 -0.703125 1.9375 -1.140625 C 1.519531 -1.585938 1.191406 -2.101562 0.953125 -2.6875 C 0.722656 -3.269531 0.609375 -3.890625 0.609375 -4.546875 C 0.609375 -5.210938 0.722656 -5.835938 0.953125 -6.421875 C 1.191406 -7.003906 1.519531 -7.515625 1.9375 -7.953125 C 2.363281 -8.398438 2.863281 -8.75 3.4375 -9 C 4.019531 -9.25 4.648438 -9.375 5.328125 -9.375 C 6.015625 -9.375 6.640625 -9.25 7.203125 -9 C 7.765625 -8.757812 8.25 -8.421875 8.65625 -7.984375 C 9.0625 -7.546875 9.375 -7.046875 9.59375 -6.484375 C 9.8125 -5.929688 9.921875 -5.34375 9.921875 -4.71875 Z M 2.859375 -5.640625 L 7.734375 -5.640625 C 7.703125 -5.984375 7.570312 -6.296875 7.34375 -6.578125 C 7.125 -6.859375 6.835938 -7.082031 6.484375 -7.25 C 6.128906 -7.425781 5.742188 -7.515625 5.328125 -7.515625 C 4.960938 -7.515625 4.613281 -7.445312 4.28125 -7.3125 C 3.957031 -7.175781 3.664062 -6.96875 3.40625 -6.6875 C 3.15625 -6.414062 2.972656 -6.066406 2.859375 -5.640625 Z M 2.859375 -5.640625 "/></g></g></g></g></g></svg>